<?xml version="1.0" encoding="UTF-8" standalone="no"?><!DOCTYPE svg PUBLIC "-//W3C//DTD SVG 1.1//EN" "http://www.w3.org/Graphics/SVG/1.1/DTD/svg11.dtd"><svg width="100%" height="100%" viewBox="0 0 3000 3003" version="1.1" xmlns="http://www.w3.org/2000/svg" xmlns:xlink="http://www.w3.org/1999/xlink" xml:space="preserve" xmlns:serif="http://www.serif.com/" style="fill-rule:evenodd;clip-rule:evenodd;stroke-linejoin:round;stroke-miterlimit:2;"><rect id="Mono---dark" serif:id="Mono - dark" x="0" y="0.526" width="3000" height="3000" style="fill:none;"/><rect id="Background" x="0" y="0.526" width="3000" height="3000" style="fill:#101010;"/><path d="M1576.7,1683.01l36.399,-168.595l1055.56,0l-36.398,168.595l-400.383,0l-194.125,886.96l-254.79,0l194.126,-886.96l-400.384,0Z" style="fill:#60c1e8;fill-rule:nonzero;"/><path d="M588.24,1514.41l351.851,0l219.337,700.771c4.569,14.661 7.996,32.253 10.281,52.778c2.285,20.525 4.189,40.561 5.712,60.108c1.523,22.479 2.285,45.448 2.285,68.904l27.417,0c0,0 0.38,-7.33 1.142,-21.99c0.762,-14.661 1.904,-33.231 3.427,-55.71c1.523,-22.48 3.808,-47.403 6.854,-74.769c3.047,-27.366 7.616,-53.755 13.709,-79.166l159.933,-650.926l253.607,0l-260.462,1055.56l-351.852,0l-212.481,-700.771c-6.093,-19.548 -10.282,-39.828 -12.567,-60.841c-2.284,-21.014 -4.188,-40.806 -5.711,-59.375c-1.524,-21.503 -2.285,-42.516 -2.285,-63.041l-27.417,0c0,23.457 -1.523,48.38 -4.57,74.769c-3.046,22.479 -6.092,47.158 -9.139,74.035c-3.046,26.878 -8.377,54.489 -15.993,82.832l-159.933,652.392l-253.607,0l260.462,-1055.56Z" style="fill:#60c1e8;fill-rule:nonzero;"/><path d="M2157.82,431.081c75.397,0 143.033,7.132 202.907,21.397c59.873,14.264 109.399,34.709 148.576,61.336c39.176,26.627 67.635,58.484 85.375,95.571c17.741,37.087 22.176,78.453 13.306,124.099l-274.977,0c7.392,-44.695 -8.131,-79.88 -46.569,-105.556c-38.437,-25.676 -94.615,-38.513 -168.534,-38.513c-76.875,0 -141.553,14.026 -194.036,42.079c-52.482,28.053 -84.636,66.329 -96.463,114.828l-104.225,425.075c-11.827,48.498 1.109,86.774 38.807,114.827c37.698,28.053 95.724,42.08 174.078,42.08c73.918,0 136.38,-13.314 187.383,-39.94c51.004,-26.627 83.898,-61.812 98.681,-105.556l274.977,0c-14.784,46.597 -39.546,88.676 -74.288,126.239c-34.742,37.562 -78.354,69.657 -130.836,96.284c-52.482,26.626 -111.986,46.834 -178.513,60.623c-66.526,13.788 -138.966,20.683 -217.32,20.683c-79.832,0 -150.054,-7.37 -210.668,-22.11c-60.613,-14.739 -110.508,-35.898 -149.684,-63.476c-39.177,-27.577 -66.527,-60.623 -82.05,-99.136c-15.523,-38.514 -17.371,-81.069 -5.544,-127.666l106.443,-430.78c11.827,-48.499 34.741,-92.005 68.744,-130.518c34.002,-38.514 76.875,-71.322 128.618,-98.424c51.743,-27.102 111.987,-47.785 180.731,-62.049c68.744,-14.265 143.771,-21.397 225.081,-21.397Z" style="fill:#60c1e8;fill-rule:nonzero;"/><path d="M337.089,1486.64l239.232,-1055.56l264.413,0l-98.63,428.087l195.162,0l386.128,-428.087l291.694,0l-463.773,514.584l241.33,540.972l-285.399,0l-199.359,-461.806l-203.557,0l-102.827,461.806l-264.414,0Z" style="fill:#60c1e8;fill-rule:nonzero;"/></svg>