<?xml version="1.0" encoding="UTF-8" standalone="no"?><!DOCTYPE svg PUBLIC "-//W3C//DTD SVG 1.1//EN" "http://www.w3.org/Graphics/SVG/1.1/DTD/svg11.dtd"><svg width="100%" height="100%" viewBox="0 0 3003 3003" version="1.1" xmlns="http://www.w3.org/2000/svg" xmlns:xlink="http://www.w3.org/1999/xlink" xml:space="preserve" xmlns:serif="http://www.serif.com/" style="fill-rule:evenodd;clip-rule:evenodd;stroke-linejoin:round;stroke-miterlimit:2;"><rect id="Black---primary" serif:id="Black - primary" x="1.359" y="1.087" width="3000" height="3000" style="fill:none;"/><clipPath id="_clip1"><rect x="1.359" y="1.087" width="3000" height="3000"/></clipPath><g clip-path="url(#_clip1)"><rect id="Background" x="1.359" y="1.087" width="3000" height="3000" style="fill:#60c1e8;"/><g><path d="M1672.5,1683.57l36.399,-168.596l1055.56,0l-36.398,168.596l-400.384,0l-194.125,886.96l-254.789,0l194.125,-886.96l-400.383,0Z" style="fill:#101010;fill-rule:nonzero;"/><path d="M684.043,1514.98l351.852,0l219.336,700.772c4.57,14.66 7.997,32.253 10.282,52.778c2.284,20.524 4.188,40.56 5.712,60.108c1.523,22.479 2.284,45.447 2.284,68.904l27.417,0c0,0 0.381,-7.33 1.143,-21.991c0.761,-14.66 1.904,-33.23 3.427,-55.71c1.523,-22.479 3.808,-47.402 6.854,-74.768c3.046,-27.366 7.616,-53.755 13.709,-79.167l159.932,-650.926l253.608,0l-260.462,1055.56l-351.852,0l-212.482,-700.772c-6.092,-19.547 -10.281,-39.827 -12.566,-60.841c-2.285,-21.013 -4.189,-40.805 -5.712,-59.375c-1.523,-21.502 -2.285,-42.515 -2.285,-63.04l-27.417,0c0,23.457 -1.523,48.38 -4.569,74.769c-3.046,22.479 -6.093,47.158 -9.139,74.035c-3.046,26.878 -8.378,54.488 -15.993,82.832l-159.933,652.392l-253.608,0l260.462,-1055.56Z" style="fill:#101010;fill-rule:nonzero;"/><path d="M2253.62,431.643c75.397,0 143.032,7.132 202.906,21.396c59.874,14.265 109.4,34.71 148.576,61.337c39.177,26.626 67.636,58.483 85.376,95.57c17.741,37.087 22.176,78.454 13.305,124.099l-274.976,0c7.392,-44.694 -8.131,-79.879 -46.569,-105.555c-38.437,-25.676 -94.615,-38.514 -168.534,-38.514c-76.875,0 -141.554,14.027 -194.036,42.08c-52.482,28.053 -84.636,66.329 -96.463,114.827l-104.225,425.075c-11.827,48.499 1.108,86.775 38.807,114.828c37.698,28.053 95.724,42.079 174.078,42.079c73.918,0 136.379,-13.313 187.383,-39.94c51.004,-26.626 83.897,-61.811 98.681,-105.555l274.977,0c-14.784,46.596 -39.547,88.676 -74.288,126.239c-34.742,37.562 -78.354,69.657 -130.836,96.283c-52.482,26.627 -111.986,46.835 -178.513,60.623c-66.527,13.789 -138.967,20.684 -217.32,20.684c-79.832,0 -150.055,-7.37 -210.668,-22.11c-60.613,-14.74 -110.508,-35.898 -149.685,-63.476c-39.177,-27.578 -66.526,-60.623 -82.049,-99.137c-15.523,-38.513 -17.371,-81.068 -5.544,-127.665l106.442,-430.781c11.827,-48.498 34.742,-92.004 68.745,-130.518c34.002,-38.513 76.875,-71.321 128.618,-98.423c51.743,-27.102 111.986,-47.785 180.73,-62.05c68.745,-14.264 143.772,-21.396 225.082,-21.396Z" style="fill:#101010;fill-rule:nonzero;"/><path d="M432.893,1487.2l239.231,-1055.56l264.414,0l-98.631,428.086l195.163,0l386.127,-428.086l291.695,0l-463.773,514.583l241.33,540.973l-285.399,0l-199.359,-461.806l-203.557,0l-102.827,461.806l-264.414,0Z" style="fill:#101010;fill-rule:nonzero;"/></g></g></svg>