<?xml version="1.0" encoding="UTF-8" standalone="no"?><!DOCTYPE svg PUBLIC "-//W3C//DTD SVG 1.1//EN" "http://www.w3.org/Graphics/SVG/1.1/DTD/svg11.dtd"><svg width="100%" height="100%" viewBox="0 0 3000 3000" version="1.1" xmlns="http://www.w3.org/2000/svg" xmlns:xlink="http://www.w3.org/1999/xlink" xml:space="preserve" xmlns:serif="http://www.serif.com/" style="fill-rule:evenodd;clip-rule:evenodd;stroke-linejoin:round;stroke-miterlimit:2;"><rect id="Black---transparent" serif:id="Black - transparent" x="0" y="0" width="3000" height="3000" style="fill:none;"/><g><path d="M1671.14,1682.49l36.398,-168.596l1055.56,0l-36.399,168.596l-400.383,0l-194.125,886.959l-254.789,0l194.125,-886.959l-400.383,0Z" style="fill:#101010;fill-rule:nonzero;"/><path d="M682.684,1513.89l351.852,0l219.336,700.771c4.57,14.661 7.997,32.254 10.281,52.778c2.285,20.525 4.189,40.561 5.712,60.108c1.523,22.48 2.285,45.448 2.285,68.905l27.417,0c0,0 0.381,-7.331 1.142,-21.991c0.762,-14.661 1.904,-33.231 3.428,-55.71c1.523,-22.479 3.808,-47.402 6.854,-74.769c3.046,-27.366 7.616,-53.755 13.708,-79.166l159.933,-650.926l253.608,0l-260.462,1055.56l-351.852,0l-212.482,-700.771c-6.093,-19.547 -10.281,-39.828 -12.566,-60.841c-2.285,-21.014 -4.189,-40.805 -5.712,-59.375c-1.523,-21.502 -2.285,-42.516 -2.285,-63.04l-27.417,0c0,23.456 -1.523,48.379 -4.569,74.768c-3.047,22.48 -6.093,47.158 -9.139,74.036c-3.047,26.877 -8.378,54.488 -15.994,82.831l-159.932,652.392l-253.608,0l260.462,-1055.56Z" style="fill:#101010;fill-rule:nonzero;"/><path d="M2252.26,430.556c75.397,0 143.032,7.132 202.906,21.396c59.874,14.264 109.399,34.71 148.576,61.336c39.177,26.627 67.635,58.484 85.376,95.571c17.74,37.087 22.175,78.453 13.305,124.099l-274.976,0c7.391,-44.695 -8.131,-79.88 -46.569,-105.556c-38.438,-25.675 -94.616,-38.513 -168.534,-38.513c-76.875,0 -141.554,14.026 -194.036,42.079c-52.482,28.054 -84.637,66.329 -96.464,114.828l-104.225,425.075c-11.827,48.498 1.109,86.774 38.807,114.827c37.699,28.053 95.725,42.08 174.078,42.08c73.919,0 136.38,-13.314 187.384,-39.94c51.003,-26.627 83.897,-61.812 98.681,-105.556l274.977,0c-14.784,46.597 -39.547,88.676 -74.289,126.239c-34.741,37.563 -78.353,69.657 -130.835,96.284c-52.482,26.626 -111.987,46.834 -178.513,60.623c-66.527,13.789 -138.967,20.683 -217.321,20.683c-79.831,0 -150.054,-7.37 -210.667,-22.109c-60.613,-14.74 -110.508,-35.899 -149.685,-63.476c-39.177,-27.578 -66.527,-60.624 -82.049,-99.137c-15.523,-38.514 -17.371,-81.069 -5.544,-127.665l106.442,-430.781c11.827,-48.499 34.742,-92.005 68.744,-130.518c34.003,-38.514 76.876,-71.321 128.618,-98.423c51.743,-27.103 111.987,-47.786 180.731,-62.05c68.744,-14.264 143.772,-21.396 225.082,-21.396Z" style="fill:#101010;fill-rule:nonzero;"/><path d="M431.534,1486.11l239.231,-1055.56l264.414,0l-98.631,428.086l195.163,0l386.127,-428.086l291.695,0l-463.773,514.583l241.329,540.972l-285.398,0l-199.36,-461.805l-203.556,0l-102.828,461.805l-264.413,0Z" style="fill:#101010;fill-rule:nonzero;"/></g></svg>