<?xml version="1.0" encoding="UTF-8" standalone="no"?><!DOCTYPE svg PUBLIC "-//W3C//DTD SVG 1.1//EN" "http://www.w3.org/Graphics/SVG/1.1/DTD/svg11.dtd"><svg width="100%" height="100%" viewBox="0 0 3000 3003" version="1.1" xmlns="http://www.w3.org/2000/svg" xmlns:xlink="http://www.w3.org/1999/xlink" xml:space="preserve" xmlns:serif="http://www.serif.com/" style="fill-rule:evenodd;clip-rule:evenodd;stroke-linejoin:round;stroke-miterlimit:2;"><rect id="Colorful---transparent" serif:id="Colorful - transparent" x="0" y="2.548" width="3000" height="3000" style="fill:none;"/><path d="M1614.92,1707.8l39.215,-177.469l1137.26,0l-39.215,177.469l-431.373,0l-209.15,933.642l-274.51,0l209.15,-933.642l-431.372,0Z" style="fill:#fe5bac;fill-rule:nonzero;"/><path d="M485.142,1530.33l397.933,0l248.062,737.654c5.168,15.433 9.044,33.951 11.628,55.556c2.584,21.605 4.737,42.695 6.46,63.272c1.722,23.662 2.584,47.839 2.584,72.53l31.008,0c0,0 0.43,-7.716 1.292,-23.148c0.861,-15.432 2.153,-34.979 3.875,-58.642c1.723,-23.662 4.307,-49.897 7.752,-78.703c3.446,-28.807 8.614,-56.585 15.504,-83.334l180.879,-685.185l286.822,0l-294.574,1111.11l-397.933,0l-240.31,-737.654c-6.891,-20.576 -11.628,-41.924 -14.212,-64.043c-2.584,-22.12 -4.737,-42.953 -6.46,-62.5c-1.722,-22.634 -2.584,-44.753 -2.584,-66.358l-31.008,0c0,24.691 -1.722,50.926 -5.167,78.703c-3.446,23.663 -6.891,49.64 -10.336,77.932c-3.446,28.293 -9.475,57.356 -18.088,87.192l-180.879,686.728l-286.822,0l294.574,-1111.11Z" style="fill:#ffd300;fill-rule:nonzero;"/><path d="M2247.47,363.659c85.858,0 162.879,7.508 231.06,22.523c68.182,15.015 124.579,36.537 169.192,64.565c44.613,28.028 77.02,61.561 97.222,100.6c20.203,39.039 25.253,82.583 15.152,130.631l-313.131,0c8.417,-47.047 -9.26,-84.084 -53.031,-111.111c-43.771,-27.027 -107.744,-40.541 -191.919,-40.541c-87.542,0 -161.195,14.765 -220.959,44.294c-59.765,29.53 -96.381,69.82 -109.849,120.871l-118.687,447.448c-13.468,51.051 1.263,91.341 44.192,120.871c42.929,29.529 109.007,44.294 198.232,44.294c84.176,0 155.304,-14.014 213.384,-42.042c58.081,-28.028 95.539,-65.065 112.374,-111.111l313.131,0c-16.835,49.049 -45.033,93.343 -84.596,132.883c-39.562,39.539 -89.225,73.323 -148.989,101.351c-59.765,28.028 -127.526,49.299 -203.283,63.814c-75.758,14.514 -158.249,21.772 -247.475,21.772c-90.909,0 -170.875,-7.758 -239.899,-23.274c-69.024,-15.515 -125.842,-37.787 -170.455,-66.817c-44.612,-29.029 -75.757,-63.813 -93.434,-104.354c-17.677,-40.54 -19.781,-85.335 -6.313,-134.384l121.212,-453.454c13.468,-51.051 39.562,-96.847 78.283,-137.387c38.72,-40.541 87.542,-75.075 146.465,-103.604c58.922,-28.528 127.525,-50.3 205.808,-65.315c78.282,-15.015 163.72,-22.523 256.313,-22.523Z" style="fill:#e60000;fill-rule:nonzero;"/><path d="M212.199,1474.77l261.169,-1111.11l288.659,0l-107.674,450.618l213.058,0l421.535,-450.618l318.442,0l-506.3,541.667l263.46,569.445l-311.57,0l-217.64,-486.112l-222.222,0l-112.257,486.112l-288.66,0Z" style="fill:#4c9ab9;fill-rule:nonzero;"/></svg>