<?xml version="1.0" encoding="UTF-8" standalone="no"?><!DOCTYPE svg PUBLIC "-//W3C//DTD SVG 1.1//EN" "http://www.w3.org/Graphics/SVG/1.1/DTD/svg11.dtd"><svg width="100%" height="100%" viewBox="0 0 7781 1670" version="1.1" xmlns="http://www.w3.org/2000/svg" xmlns:xlink="http://www.w3.org/1999/xlink" xml:space="preserve" xmlns:serif="http://www.serif.com/" style="fill-rule:evenodd;clip-rule:evenodd;stroke-linejoin:round;stroke-miterlimit:2;"><rect id="Mono---transparent--azure-ad-" serif:id="Mono - transparent (azure-ad)" x="1.389" y="2.5" width="7777.78" height="1666.67" style="fill:none;"/><g><path d="M5037.96,476.622l36.475,-168.566l1057.78,0l-36.475,168.566l-401.227,0l-194.534,886.806l-255.326,0l194.534,-886.806l-401.227,0Z" style="fill:#4c9ab9;fill-rule:nonzero;"/><path d="M4023.72,308.056l351.965,0l219.406,700.65c4.571,14.658 7.999,32.247 10.285,52.768c2.285,20.522 4.19,40.554 5.713,60.098c1.524,22.476 2.286,45.44 2.286,68.893l27.426,0c0,0 0.381,-7.329 1.142,-21.987c0.762,-14.658 1.905,-33.225 3.429,-55.701c1.523,-22.475 3.809,-47.394 6.856,-74.755c3.047,-27.362 7.618,-53.746 13.713,-79.153l159.984,-650.813l253.689,0l-260.546,1055.37l-351.964,0l-212.55,-700.65c-6.095,-19.544 -10.285,-39.821 -12.57,-60.83c-2.286,-21.01 -4.19,-40.798 -5.714,-59.365c-1.524,-21.498 -2.285,-42.508 -2.285,-63.029l-27.426,0c0,23.452 -1.524,48.371 -4.571,74.755c-3.047,22.476 -6.095,47.15 -9.142,74.023c-3.047,26.873 -8.38,54.479 -15.999,82.817l-159.983,652.279l-253.689,0l260.545,-1055.37Z" style="fill:#4c9ab9;fill-rule:nonzero;"/><path d="M3421.08,308.238c75.405,0 143.048,7.131 202.929,21.393c59.88,14.262 109.411,34.704 148.593,61.326c39.181,26.622 67.643,58.473 85.385,95.554c17.743,37.08 22.178,78.44 13.307,124.077l-275.008,0c7.393,-44.687 -8.132,-79.866 -46.574,-105.537c-38.442,-25.671 -94.626,-38.507 -168.553,-38.507c-76.884,0 -141.569,14.024 -194.058,42.072c-52.488,28.049 -84.646,66.318 -96.474,114.808l-104.237,425.001c-11.828,48.491 1.109,86.76 38.812,114.808c37.702,28.048 95.735,42.072 174.097,42.072c73.927,0 136.395,-13.311 187.405,-39.933c51.009,-26.622 83.907,-61.801 98.692,-105.537l275.008,0c-14.786,46.588 -39.551,88.661 -74.297,126.217c-34.745,37.556 -78.362,69.645 -130.85,96.267c-52.488,26.622 -111.999,46.826 -178.533,60.613c-66.534,13.786 -138.983,20.679 -217.345,20.679c-79.841,0 -150.071,-7.368 -210.691,-22.106c-60.62,-14.737 -110.521,-35.892 -149.702,-63.465c-39.181,-27.572 -66.534,-60.612 -82.059,-99.119c-15.525,-38.507 -17.373,-81.055 -5.544,-127.643l106.454,-430.706c11.828,-48.491 34.746,-91.989 68.752,-130.496c34.006,-38.507 76.884,-71.309 128.633,-98.406c51.748,-27.098 111.999,-47.777 180.751,-62.039c68.752,-14.262 143.787,-21.393 225.107,-21.393Z" style="fill:#4c9ab9;fill-rule:nonzero;"/><path d="M1648.34,1363.61l239.149,-1055.37l264.322,0l-98.596,428.013l195.094,0l385.995,-428.013l291.593,0l-463.613,514.495l241.247,540.878l-285.3,0l-199.291,-461.726l-203.486,0l-102.792,461.726l-264.322,0Z" style="fill:#4c9ab9;fill-rule:nonzero;"/></g></svg>