<?xml version="1.0" encoding="UTF-8" standalone="no"?><!DOCTYPE svg PUBLIC "-//W3C//DTD SVG 1.1//EN" "http://www.w3.org/Graphics/SVG/1.1/DTD/svg11.dtd"><svg width="100%" height="100%" viewBox="0 0 3003 3000" version="1.1" xmlns="http://www.w3.org/2000/svg" xmlns:xlink="http://www.w3.org/1999/xlink" xml:space="preserve" xmlns:serif="http://www.serif.com/" style="fill-rule:evenodd;clip-rule:evenodd;stroke-linejoin:round;stroke-miterlimit:2;"><rect id="Black---light" serif:id="Black - light" x="2.45" y="0" width="3000" height="3000" style="fill:none;"/><clipPath id="_clip1"><rect x="2.45" y="0" width="3000" height="3000"/></clipPath><g clip-path="url(#_clip1)"><rect id="Background" x="2.45" y="0" width="3000" height="3000" style="fill:#f5f5f5;"/><g><path d="M1673.59,1682.49l36.399,-168.596l1055.56,0l-36.398,168.596l-400.383,0l-194.125,886.959l-254.79,0l194.125,-886.959l-400.383,0Z" style="fill:#101010;fill-rule:nonzero;"/><path d="M685.133,1513.89l351.852,0l219.337,700.771c4.569,14.661 7.996,32.254 10.281,52.778c2.285,20.525 4.189,40.561 5.712,60.108c1.523,22.48 2.285,45.448 2.285,68.905l27.417,0c0,0 0.38,-7.331 1.142,-21.991c0.762,-14.661 1.904,-33.231 3.427,-55.71c1.523,-22.479 3.808,-47.402 6.854,-74.769c3.047,-27.366 7.616,-53.755 13.709,-79.166l159.933,-650.926l253.607,0l-260.462,1055.56l-351.852,0l-212.482,-700.771c-6.092,-19.547 -10.281,-39.828 -12.566,-60.841c-2.284,-21.014 -4.188,-40.805 -5.712,-59.375c-1.523,-21.502 -2.284,-42.516 -2.284,-63.04l-27.417,0c0,23.456 -1.523,48.379 -4.57,74.768c-3.046,22.48 -6.093,47.158 -9.139,74.036c-3.046,26.877 -8.377,54.488 -15.993,82.831l-159.933,652.392l-253.607,0l260.461,-1055.56Z" style="fill:#101010;fill-rule:nonzero;"/><path d="M2254.71,430.556c75.397,0 143.033,7.132 202.906,21.396c59.874,14.264 109.4,34.71 148.577,61.336c39.176,26.627 67.635,58.484 85.375,95.571c17.741,37.087 22.176,78.453 13.306,124.099l-274.977,0c7.392,-44.695 -8.131,-79.88 -46.569,-105.556c-38.437,-25.675 -94.615,-38.513 -168.534,-38.513c-76.875,0 -141.553,14.026 -194.036,42.079c-52.482,28.054 -84.636,66.329 -96.463,114.828l-104.225,425.075c-11.827,48.498 1.109,86.774 38.807,114.827c37.698,28.053 95.724,42.08 174.078,42.08c73.918,0 136.38,-13.314 187.383,-39.94c51.004,-26.627 83.898,-61.812 98.681,-105.556l274.977,0c-14.784,46.597 -39.546,88.676 -74.288,126.239c-34.742,37.563 -78.354,69.657 -130.836,96.284c-52.482,26.626 -111.986,46.834 -178.513,60.623c-66.526,13.789 -138.966,20.683 -217.32,20.683c-79.832,0 -150.054,-7.37 -210.668,-22.109c-60.613,-14.74 -110.508,-35.899 -149.684,-63.476c-39.177,-27.578 -66.527,-60.624 -82.05,-99.137c-15.523,-38.514 -17.371,-81.069 -5.544,-127.665l106.443,-430.781c11.827,-48.499 34.741,-92.005 68.744,-130.518c34.002,-38.514 76.875,-71.321 128.618,-98.423c51.743,-27.103 111.986,-47.786 180.731,-62.05c68.744,-14.264 143.771,-21.396 225.081,-21.396Z" style="fill:#101010;fill-rule:nonzero;"/><path d="M433.983,1486.11l239.232,-1055.56l264.413,0l-98.63,428.086l195.162,0l386.128,-428.086l291.694,0l-463.773,514.583l241.33,540.972l-285.399,0l-199.359,-461.805l-203.557,0l-102.827,461.805l-264.414,0Z" style="fill:#101010;fill-rule:nonzero;"/></g></g></svg>