<?xml version="1.0" encoding="UTF-8" standalone="no"?><!DOCTYPE svg PUBLIC "-//W3C//DTD SVG 1.1//EN" "http://www.w3.org/Graphics/SVG/1.1/DTD/svg11.dtd"><svg width="100%" height="100%" viewBox="0 0 6003 3003" version="1.1" xmlns="http://www.w3.org/2000/svg" xmlns:xlink="http://www.w3.org/1999/xlink" xml:space="preserve" xmlns:serif="http://www.serif.com/" style="fill-rule:evenodd;clip-rule:evenodd;stroke-linejoin:round;stroke-miterlimit:2;"><rect id="Mono---transparent--1x2-" serif:id="Mono - transparent (1x2)" x="1.389" y="1.672" width="6000" height="3000" style="fill:none;"/><g><path d="M4284.98,1099.92l40.795,-188.529l1183.04,0l-40.795,188.529l-448.74,0l-217.572,991.822l-285.562,0l217.571,-991.822l-448.74,0Z" style="fill:#4c9ab9;fill-rule:nonzero;"/><path d="M3150.64,911.394l393.645,0l245.388,783.622c5.113,16.394 8.947,36.067 11.503,59.018c2.556,22.951 4.686,45.356 6.39,67.214c1.705,25.137 2.557,50.821 2.557,77.051l30.673,0c0,0 0.426,-8.197 1.278,-24.591c0.852,-16.393 2.13,-37.159 3.834,-62.296c1.705,-25.137 4.261,-53.006 7.669,-83.608c3.408,-30.602 8.52,-60.111 15.337,-88.527l178.929,-727.883l283.731,0l-291.399,1180.35l-393.645,0l-237.72,-783.622c-6.817,-21.858 -11.503,-44.536 -14.059,-68.034c-2.556,-23.497 -4.686,-45.629 -6.39,-66.394c-1.705,-24.045 -2.557,-47.542 -2.557,-70.494l-30.673,0c0,26.23 -1.704,54.1 -5.112,83.609c-3.409,25.137 -6.817,52.733 -10.225,82.788c-3.408,30.055 -9.372,60.93 -17.893,92.625l-178.929,729.522l-283.731,0l291.399,-1180.35Z" style="fill:#4c9ab9;fill-rule:nonzero;"/><path d="M2476.63,911.599c84.335,0 159.989,7.975 226.961,23.926c66.971,15.95 122.368,38.813 166.189,68.588c43.821,29.774 75.653,65.397 95.497,106.869c19.843,41.472 24.804,87.729 14.882,138.771l-307.574,0c8.268,-49.979 -9.095,-89.324 -52.089,-118.035c-42.994,-28.711 -105.832,-43.067 -188.513,-43.067c-85.989,0 -158.335,15.685 -217.039,47.055c-58.704,31.37 -94.67,74.171 -107.899,128.403l-116.58,475.331c-13.229,54.232 1.24,97.033 43.407,128.403c42.168,31.369 107.072,47.054 194.715,47.054c82.681,0 152.547,-14.887 209.597,-44.662c57.05,-29.774 93.843,-69.119 110.379,-118.035l307.574,0c-16.536,52.106 -44.234,99.16 -83.094,141.164c-38.86,42.003 -87.642,77.892 -146.346,107.667c-58.704,29.774 -125.262,52.371 -199.675,67.79c-74.413,15.419 -155.441,23.129 -243.083,23.129c-89.296,0 -167.843,-8.241 -235.642,-24.724c-67.799,-16.482 -123.608,-40.142 -167.43,-70.98c-43.821,-30.838 -74.413,-67.791 -91.776,-110.858c-17.363,-43.067 -19.43,-90.653 -6.201,-142.758l119.061,-481.711c13.229,-54.233 38.86,-102.882 76.894,-145.949c38.033,-43.067 85.988,-79.754 143.865,-110.06c57.877,-30.306 125.262,-53.435 202.156,-69.385c76.894,-15.951 160.815,-23.926 251.764,-23.926Z" style="fill:#4c9ab9;fill-rule:nonzero;"/><path d="M493.96,2091.95l267.469,-1180.35l295.623,0l-110.272,478.698l218.198,0l431.704,-478.698l326.124,0l-518.514,575.421l269.815,604.93l-319.085,0l-222.891,-516.404l-227.583,0l-114.965,516.404l-295.623,0Z" style="fill:#4c9ab9;fill-rule:nonzero;"/></g></svg>